<?xml version="1.0" encoding="UTF-8"?>
<svg xmlns="http://www.w3.org/2000/svg" viewBox="0 0 512 512">
  <path fill="#000000" d="M386.399 35.508C347.945 13.454 305.722 0 261.552 0 123.714 0 11.686 111.928 11.686 250c0 138.072 112.028 250 249.866 250 44.17 0 86.393-13.454 124.847-35.508C334.897 437.682 296.043 375 296.043 300c0-75 38.854-137.682 90.356-164.492z"/>
  <path fill="#000000" d="M261.552 50c-110.457 0-200 89.543-200 200s89.543 200 200 200 200-89.543 200-200-89.543-200-200-200zm0 50c82.843 0 150 67.157 150 150s-67.157 150-150 150-150-67.157-150-150 67.157-150 150-150z"/>
</svg>
